{
  "accessors": [
    {
      "bufferView": 2,
      "componentType": 5126,
      "count": 3092,
      "max": [
        0.39559200406074524,
        1.0,
        0.6672009825706482
      ],
      "min": [
        -0.39559200406074524,
        -1.0,
        -0.6672009825706482
      ],
      "type": "VEC3"
    },
    {
      "bufferView": 2,
      "byteOffset": 37104,
      "componentType": 5126,
      "count": 3092,
      "max": [
        0.9997231364250183,
        0.9995220899581909,
        0.9999962449073792
      ],
      "min": [
        -0.9997231364250183,
        -0.9998056292533875,
        -0.9999978542327881
      ],
      "type": "VEC3"
    },
    {
      "bufferView": 3,
      "componentType": 5126,
      "count": 3092,
      "max": [
        0.9997377395629883,
        0.9981776475906372,
        0.9999847412109375,
        1.0
      ],
      "min": [
        -0.9996243715286255,
        -0.9993577003479004,
        -0.9999632835388184,
        1.0
      ],
      "type": "VEC4"
    },
    {
      "bufferView": 1,
      "componentType": 5126,
      "count": 3092,
      "max": [
        0.9755799770355225,
        0.9901310205459595
      ],
      "min": [
        0.01517490018159151,
        0.005785979796200991
      ],
      "type": "VEC2"
    },
    {
      "bufferView": 0,
      "componentType": 5125,
      "count": 13866,
      "type": "SCALAR"
    }
  ],
  "asset": {
    "extras": {
      "author": "Ankledot (https://sketchfab.com/Ankledot)",
      "license": "CC-BY-4.0 (http://creativecommons.org/licenses/by/4.0/)",
      "source": "https://sketchfab.com/3d-models/egyptian-cat-statue-02b0456362f9442da46d39fb34b3ee5b",
      "title": "Egyptian Cat Statue"
    },
    "generator": "Sketchfab-12.68.0",
    "version": "2.0"
  },
  "bufferViews": [
    {
      "buffer": 0,
      "byteLength": 55464,
      "name": "floatBufferViews",
      "target": 34963
    },
    {
      "buffer": 0,
      "byteLength": 24736,
      "byteOffset": 55464,
      "byteStride": 8,
      "name": "floatBufferViews",
      "target": 34962
    },
    {
      "buffer": 0,
      "byteLength": 74208,
      "byteOffset": 80200,
      "byteStride": 12,
      "name": "floatBufferViews",
      "target": 34962
    },
    {
      "buffer": 0,
      "byteLength": 49472,
      "byteOffset": 154408,
      "byteStride": 16,
      "name": "floatBufferViews",
      "target": 34962
    }
  ],
  "buffers": [
    {
      "byteLength": 203880,
      "uri": "scene1.bin"
    }
  ],
  "images": [
    {
      "uri": "M_Cat_Statue_baseColor.jpeg"
    },
    {
      "uri": "M_Cat_Statue_metallicRoughness.png"
    },
    {
      "uri": "M_Cat_Statue_normal.png"
    }
  ],
  "materials": [
    {
      "name": "M_Cat_Statue",
      "normalTexture": {
        "index": 2
      },
      "occlusionTexture": {
        "index": 1
      },
      "pbrMetallicRoughness": {
        "baseColorTexture": {
          "index": 0
        },
        "metallicRoughnessTexture": {
          "index": 1
        }
      }
    }
  ],
  "meshes": [
    {
      "name": "defaultMaterial",
      "primitives": [
        {
          "attributes": {
            "NORMAL": 1,
            "POSITION": 0,
            "TANGENT": 2,
            "TEXCOORD_0": 3
          },
          "indices": 4,
          "material": 0,
          "mode": 4
        }
      ]
    }
  ],
  "nodes": [
    {
      "children": [
        1
      ],
      "matrix": [
        1.0,
        0.0,
        0.0,
        0.0,
        0.0,
        2.220446049250313e-16,
        -1.0,
        0.0,
        0.0,
        1.0,
        2.220446049250313e-16,
        0.0,
        0.0,
        3.6000000758207327e-09,
        -1.0099999947499327e-08,
        1.0
      ],
      "name": "Sketchfab_model"
    },
    {
      "children": [
        2
      ],
      "matrix": [
        1.0,
        0.0,
        0.0,
        0.0,
        0.0,
        -4.371139006309477e-08,
        0.999999999999999,
        0.0,
        0.0,
        -0.999999999999999,
        -4.371139006309477e-08,
        0.0,
        0.0,
        0.0,
        0.0,
        1.0
      ],
      "name": "Collada visual scene group"
    },
    {
      "children": [
        3
      ],
      "name": "Cat_Statue"
    },
    {
      "mesh": 0,
      "name": "defaultMaterial"
    }
  ],
  "samplers": [
    {
      "magFilter": 9729,
      "minFilter": 9987,
      "wrapS": 10497,
      "wrapT": 10497
    }
  ],
  "scene": 0,
  "scenes": [
    {
      "name": "Sketchfab_Scene",
      "nodes": [
        0
      ]
    }
  ],
  "textures": [
    {
      "sampler": 0,
      "source": 0
    },
    {
      "sampler": 0,
      "source": 1
    },
    {
      "sampler": 0,
      "source": 2
    }
  ]
}
