{
  "accessors": [
    {
      "bufferView": 2,
      "componentType": 5126,
      "count": 65532,
      "max": [
        3.5655949115753174,
        2.9035799503326416,
        9.915102005004883
      ],
      "min": [
        -2.1362268924713135,
        -5.070098876953125,
        -0.33754900097846985
      ],
      "type": "VEC3"
    },
    {
      "bufferView": 2,
      "byteOffset": 786384,
      "componentType": 5126,
      "count": 65532,
      "max": [
        0.9998651742935181,
        0.9999973773956299,
        0.9999970197677612
      ],
      "min": [
        -0.9999489784240723,
        -0.999995231628418,
        -0.9999066591262817
      ],
      "type": "VEC3"
    },
    {
      "bufferView": 1,
      "componentType": 5126,
      "count": 65532,
      "max": [
        0.9993979930877686,
        0.9978510141372681
      ],
      "min": [
        0.0005929999751970172,
        0.0005939999828115106
      ],
      "type": "VEC2"
    },
    {
      "bufferView": 0,
      "componentType": 5125,
      "count": 201249,
      "type": "SCALAR"
    },
    {
      "bufferView": 2,
      "byteOffset": 1572768,
      "componentType": 5126,
      "count": 65532,
      "max": [
        1.3161929845809937,
        3.323951005935669,
        9.870092391967773
      ],
      "min": [
        -2.081110954284668,
        -2.9069480895996094,
        -0.31112799048423767
      ],
      "type": "VEC3"
    },
    {
      "bufferView": 2,
      "byteOffset": 2359152,
      "componentType": 5126,
      "count": 65532,
      "max": [
        0.9999229907989502,
        0.9999932050704956,
        0.999936580657959
      ],
      "min": [
        -0.9999916553497314,
        -0.9998804330825806,
        -0.9996369481086731
      ],
      "type": "VEC3"
    },
    {
      "bufferView": 1,
      "byteOffset": 524256,
      "componentType": 5126,
      "count": 65532,
      "max": [
        0.9994080066680908,
        0.997651994228363
      ],
      "min": [
        0.0005970000056549907,
        0.0005929999751970172
      ],
      "type": "VEC2"
    },
    {
      "bufferView": 0,
      "byteOffset": 804996,
      "componentType": 5125,
      "count": 201678,
      "type": "SCALAR"
    },
    {
      "bufferView": 2,
      "byteOffset": 3145536,
      "componentType": 5126,
      "count": 65532,
      "max": [
        2.8340349197387695,
        2.299665927886963,
        10.447473526000977
      ],
      "min": [
        -1.8788009881973267,
        -3.7011780738830566,
        0.6420029997825623
      ],
      "type": "VEC3"
    },
    {
      "bufferView": 2,
      "byteOffset": 3931920,
      "componentType": 5126,
      "count": 65532,
      "max": [
        0.9996013045310974,
        0.9999934434890747,
        0.9999897480010986
      ],
      "min": [
        -0.9999886751174927,
        -0.9999955892562866,
        -0.9999493360519409
      ],
      "type": "VEC3"
    },
    {
      "bufferView": 1,
      "byteOffset": 1048512,
      "componentType": 5126,
      "count": 65532,
      "max": [
        0.9994540214538574,
        0.9932960271835327
      ],
      "min": [
        0.0005959999980404973,
        0.0005949999904260039
      ],
      "type": "VEC2"
    },
    {
      "bufferView": 0,
      "byteOffset": 1611708,
      "componentType": 5125,
      "count": 201930,
      "type": "SCALAR"
    },
    {
      "bufferView": 2,
      "byteOffset": 4718304,
      "componentType": 5126,
      "count": 65532,
      "max": [
        2.6278820037841797,
        2.0856900215148926,
        10.476667404174805
      ],
      "min": [
        -1.8648810386657715,
        -3.707882881164551,
        4.646432876586914
      ],
      "type": "VEC3"
    },
    {
      "bufferView": 2,
      "byteOffset": 5504688,
      "componentType": 5126,
      "count": 65532,
      "max": [
        0.9999321699142456,
        0.9999556541442871,
        0.9999278783798218
      ],
      "min": [
        -0.9999252557754517,
        -0.9999018907546997,
        -0.9999644756317139
      ],
      "type": "VEC3"
    },
    {
      "bufferView": 1,
      "byteOffset": 1572768,
      "componentType": 5126,
      "count": 65532,
      "max": [
        0.9993939995765686,
        0.9978280067443848
      ],
      "min": [
        0.0005990000208839774,
        0.0005910000181756914
      ],
      "type": "VEC2"
    },
    {
      "bufferView": 0,
      "byteOffset": 2419428,
      "componentType": 5125,
      "count": 198756,
      "type": "SCALAR"
    },
    {
      "bufferView": 2,
      "byteOffset": 6291072,
      "componentType": 5126,
      "count": 65532,
      "max": [
        3.2925949096679688,
        2.4679689407348633,
        10.457048416137695
      ],
      "min": [
        0.057753998786211014,
        -3.173245906829834,
        0.7378889918327332
      ],
      "type": "VEC3"
    },
    {
      "bufferView": 2,
      "byteOffset": 7077456,
      "componentType": 5126,
      "count": 65532,
      "max": [
        0.9999964237213135,
        0.999967098236084,
        0.9999775886535645
      ],
      "min": [
        -0.9999697208404541,
        -0.999990701675415,
        -0.999256432056427
      ],
      "type": "VEC3"
    },
    {
      "bufferView": 1,
      "byteOffset": 2097024,
      "componentType": 5126,
      "count": 65532,
      "max": [
        0.999405026435852,
        0.9947850108146667
      ],
      "min": [
        0.0005949999904260039,
        0.0005970000056549907
      ],
      "type": "VEC2"
    },
    {
      "bufferView": 0,
      "byteOffset": 3214452,
      "componentType": 5125,
      "count": 194163,
      "type": "SCALAR"
    },
    {
      "bufferView": 2,
      "byteOffset": 7863840,
      "componentType": 5126,
      "count": 65532,
      "max": [
        3.802196979522705,
        2.4710350036621094,
        10.519006729125977
      ],
      "min": [
        -0.3642669916152954,
        -3.1272220611572266,
        0.9772520065307617
      ],
      "type": "VEC3"
    },
    {
      "bufferView": 2,
      "byteOffset": 8650224,
      "componentType": 5126,
      "count": 65532,
      "max": [
        0.9999909400939941,
        0.9999706745147705,
        0.999948263168335
      ],
      "min": [
        -0.9997207522392273,
        -0.9998857975006104,
        -0.9999954700469971
      ],
      "type": "VEC3"
    },
    {
      "bufferView": 1,
      "byteOffset": 2621280,
      "componentType": 5126,
      "count": 65532,
      "max": [
        0.9994000196456909,
        0.9965469837188721
      ],
      "min": [
        0.0006050000083632767,
        0.0005920000257901847
      ],
      "type": "VEC2"
    },
    {
      "bufferView": 0,
      "byteOffset": 3991104,
      "componentType": 5125,
      "count": 193677,
      "type": "SCALAR"
    },
    {
      "bufferView": 2,
      "byteOffset": 9436608,
      "componentType": 5126,
      "count": 65532,
      "max": [
        2.8155601024627686,
        1.7641689777374268,
        6.26544189453125
      ],
      "min": [
        -0.22556599974632263,
        -3.477421998977661,
        0.5877000093460083
      ],
      "type": "VEC3"
    },
    {
      "bufferView": 2,
      "byteOffset": 10222992,
      "componentType": 5126,
      "count": 65532,
      "max": [
        0.9999914169311523,
        0.9995563626289368,
        0.9999635219573975
      ],
      "min": [
        -0.999729573726654,
        -0.9999945163726807,
        -0.9999657869338989
      ],
      "type": "VEC3"
    },
    {
      "bufferView": 1,
      "byteOffset": 3145536,
      "componentType": 5126,
      "count": 65532,
      "max": [
        0.9994879961013794,
        0.9674540162086487
      ],
      "min": [
        0.0005959999980404973,
        0.0005939999828115106
      ],
      "type": "VEC2"
    },
    {
      "bufferView": 0,
      "byteOffset": 4765812,
      "componentType": 5125,
      "count": 191613,
      "type": "SCALAR"
    },
    {
      "bufferView": 2,
      "byteOffset": 11009376,
      "componentType": 5126,
      "count": 65532,
      "max": [
        2.8530778884887695,
        2.526654005050659,
        8.043188095092773
      ],
      "min": [
        -0.31984201073646545,
        -3.4780309200286865,
        -0.09304600208997726
      ],
      "type": "VEC3"
    },
    {
      "bufferView": 2,
      "byteOffset": 11795760,
      "componentType": 5126,
      "count": 65532,
      "max": [
        0.9999465942382813,
        0.9998762607574463,
        0.9998393654823303
      ],
      "min": [
        -0.9997135996818542,
        -0.9999701976776123,
        -0.9983338117599487
      ],
      "type": "VEC3"
    },
    {
      "bufferView": 1,
      "byteOffset": 3669792,
      "componentType": 5126,
      "count": 65532,
      "max": [
        0.9994019865989685,
        0.9919750094413757
      ],
      "min": [
        0.0005990000208839774,
        0.0005929999751970172
      ],
      "type": "VEC2"
    },
    {
      "bufferView": 0,
      "byteOffset": 5532264,
      "componentType": 5125,
      "count": 187299,
      "type": "SCALAR"
    },
    {
      "bufferView": 2,
      "byteOffset": 12582144,
      "componentType": 5126,
      "count": 65532,
      "max": [
        3.788655996322632,
        2.5355029106140137,
        2.714690923690796
      ],
      "min": [
        -0.7001050114631653,
        -2.4604780673980713,
        -0.33754900097846985
      ],
      "type": "VEC3"
    },
    {
      "bufferView": 2,
      "byteOffset": 13368528,
      "componentType": 5126,
      "count": 65532,
      "max": [
        0.9999656677246094,
        0.9999582767486572,
        0.999982476234436
      ],
      "min": [
        -0.9993176460266113,
        -0.9999569654464722,
        -0.9999897480010986
      ],
      "type": "VEC3"
    },
    {
      "bufferView": 1,
      "byteOffset": 4194048,
      "componentType": 5126,
      "count": 65532,
      "max": [
        0.9994440078735352,
        0.9901639819145203
      ],
      "min": [
        0.0005929999751970172,
        0.0005910000181756914
      ],
      "type": "VEC2"
    },
    {
      "bufferView": 0,
      "byteOffset": 6281460,
      "componentType": 5125,
      "count": 190455,
      "type": "SCALAR"
    },
    {
      "bufferView": 2,
      "byteOffset": 14154912,
      "componentType": 5126,
      "count": 65532,
      "max": [
        3.7839300632476807,
        2.2460711002349854,
        12.016517639160156
      ],
      "min": [
        -2.1394920349121094,
        -3.0426480770111084,
        -0.320497989654541
      ],
      "type": "VEC3"
    },
    {
      "bufferView": 2,
      "byteOffset": 14941296,
      "componentType": 5126,
      "count": 65532,
      "max": [
        0.9999475479125977,
        0.9999203681945801,
        0.9999998807907104
      ],
      "min": [
        -0.9999191761016846,
        -0.9999569654464722,
        -0.9999285936355591
      ],
      "type": "VEC3"
    },
    {
      "bufferView": 1,
      "byteOffset": 4718304,
      "componentType": 5126,
      "count": 65532,
      "max": [
        0.999413013458252,
        0.9980059862136841
      ],
      "min": [
        0.0005970000056549907,
        0.0005910000181756914
      ],
      "type": "VEC2"
    },
    {
      "bufferView": 0,
      "byteOffset": 7043280,
      "componentType": 5125,
      "count": 192357,
      "type": "SCALAR"
    },
    {
      "bufferView": 2,
      "byteOffset": 15727680,
      "componentType": 5126,
      "count": 65533,
      "max": [
        3.679908037185669,
        2.1670401096343994,
        12.04936408996582
      ],
      "min": [
        -1.6837290525436401,
        -3.784287929534912,
        0.20683899521827698
      ],
      "type": "VEC3"
    },
    {
      "bufferView": 2,
      "byteOffset": 16514076,
      "componentType": 5126,
      "count": 65533,
      "max": [
        0.9995725750923157,
        0.9999892711639404,
        0.9999117851257324
      ],
      "min": [
        -0.9998049139976501,
        -0.9999734163284302,
        -0.999306321144104
      ],
      "type": "VEC3"
    },
    {
      "bufferView": 1,
      "byteOffset": 5242560,
      "componentType": 5126,
      "count": 65533,
      "max": [
        0.999409019947052,
        0.9982389807701111
      ],
      "min": [
        0.0005959999980404973,
        0.0005959999980404973
      ],
      "type": "VEC2"
    },
    {
      "bufferView": 0,
      "byteOffset": 7812708,
      "componentType": 5125,
      "count": 190878,
      "type": "SCALAR"
    },
    {
      "bufferView": 2,
      "byteOffset": 17300472,
      "componentType": 5126,
      "count": 51577,
      "max": [
        2.9242100715637207,
        -1.3030229806900024,
        10.148637771606445
      ],
      "min": [
        -1.3133399486541748,
        -3.784287929534912,
        -0.3101609945297241
      ],
      "type": "VEC3"
    },
    {
      "bufferView": 2,
      "byteOffset": 17919396,
      "componentType": 5126,
      "count": 51577,
      "max": [
        0.9999876022338867,
        0.9975720643997192,
        0.9999443292617798
      ],
      "min": [
        -0.9998964071273804,
        -0.9999912977218628,
        -0.9996650815010071
      ],
      "type": "VEC3"
    },
    {
      "bufferView": 1,
      "byteOffset": 5766824,
      "componentType": 5126,
      "count": 51577,
      "max": [
        0.9994019865989685,
        0.9989259839057922
      ],
      "min": [
        0.0006230000290088356,
        0.0005920000257901847
      ],
      "type": "VEC2"
    },
    {
      "bufferView": 0,
      "byteOffset": 8576220,
      "componentType": 5125,
      "count": 134535,
      "type": "SCALAR"
    },
    {
      "bufferView": 2,
      "byteOffset": 18538320,
      "componentType": 5126,
      "count": 2368,
      "max": [
        3.5558080673217773,
        2.486699104309082,
        -0.25568100810050964
      ],
      "min": [
        -2.069020986557007,
        -3.6851439476013184,
        -0.33754900097846985
      ],
      "type": "VEC3"
    },
    {
      "bufferView": 2,
      "byteOffset": 18566736,
      "componentType": 5126,
      "count": 2368,
      "max": [
        0.04519996792078018,
        0.1320957988500595,
        -0.8883863687515259
      ],
      "min": [
        -0.03639884293079376,
        -0.4569929540157318,
        -0.999876856803894
      ],
      "type": "VEC3"
    },
    {
      "bufferView": 1,
      "byteOffset": 6179440,
      "componentType": 5126,
      "count": 2368,
      "max": [
        0.5432010293006897,
        0.9280549883842468
      ],
      "min": [
        0.4314259886741638,
        0.8000810146331787
      ],
      "type": "VEC2"
    },
    {
      "bufferView": 0,
      "byteOffset": 9114360,
      "componentType": 5125,
      "count": 2970,
      "type": "SCALAR"
    }
  ],
  "asset": {
    "extras": {
      "author": "noe-3d.at (https://sketchfab.com/www.noe-3d.at)",
      "license": "CC-BY-NC-4.0 (http://creativecommons.org/licenses/by-nc/4.0/)",
      "source": "https://sketchfab.com/3d-models/jupiter-und-ganymed-d7967547ca8d48b9802a774c19137fc2",
      "title": "Jupiter und Ganymed"
    },
    "generator": "Sketchfab-16.12.0",
    "version": "2.0"
  },
  "bufferViews": [
    {
      "buffer": 0,
      "byteLength": 9126240,
      "name": "floatBufferViews",
      "target": 34963
    },
    {
      "buffer": 0,
      "byteLength": 6198384,
      "byteOffset": 9126240,
      "byteStride": 8,
      "name": "floatBufferViews",
      "target": 34962
    },
    {
      "buffer": 0,
      "byteLength": 18595152,
      "byteOffset": 15324624,
      "byteStride": 12,
      "name": "floatBufferViews",
      "target": 34962
    }
  ],
  "buffers": [
    {
      "byteLength": 33919776,
      "uri": "ene.bin"
    }
  ],
  "extensionsUsed": [
    "KHR_materials_specular"
  ],
  "images": [
    {
      "uri": "Jupiter_Ganymed_O.001_baseColor.png"
    }
  ],
  "materials": [
    {
      "doubleSided": true,
      "extensions": {
        "KHR_materials_specular": {
          "specularColorFactor": [
            1.0,
            1.0,
            1.0
          ],
          "specularFactor": 0.0
        }
      },
      "name": "Jupiter_Ganymed_O.001",
      "pbrMetallicRoughness": {
        "baseColorTexture": {
          "index": 0
        },
        "metallicFactor": 0.0
      }
    },
    {
      "doubleSided": true,
      "extensions": {
        "KHR_materials_specular": {
          "specularColorFactor": [
            1.0,
            1.0,
            1.0
          ],
          "specularFactor": 0.0
        }
      },
      "name": "bottom",
      "pbrMetallicRoughness": {
        "baseColorFactor": [
          0.06315964807290675,
          0.056551749208566336,
          0.04169262663954094,
          1.0
        ],
        "metallicFactor": 0.0,
        "roughnessFactor": 0.8011823178082373
      }
    }
  ],
  "meshes": [
    {
      "name": "Object_0",
      "primitives": [
        {
          "attributes": {
            "NORMAL": 1,
            "POSITION": 0,
            "TEXCOORD_0": 2
          },
          "indices": 3,
          "material": 0,
          "mode": 4
        }
      ]
    },
    {
      "name": "Object_1",
      "primitives": [
        {
          "attributes": {
            "NORMAL": 5,
            "POSITION": 4,
            "TEXCOORD_0": 6
          },
          "indices": 7,
          "material": 0,
          "mode": 4
        }
      ]
    },
    {
      "name": "Object_2",
      "primitives": [
        {
          "attributes": {
            "NORMAL": 9,
            "POSITION": 8,
            "TEXCOORD_0": 10
          },
          "indices": 11,
          "material": 0,
          "mode": 4
        }
      ]
    },
    {
      "name": "Object_3",
      "primitives": [
        {
          "attributes": {
            "NORMAL": 13,
            "POSITION": 12,
            "TEXCOORD_0": 14
          },
          "indices": 15,
          "material": 0,
          "mode": 4
        }
      ]
    },
    {
      "name": "Object_4",
      "primitives": [
        {
          "attributes": {
            "NORMAL": 17,
            "POSITION": 16,
            "TEXCOORD_0": 18
          },
          "indices": 19,
          "material": 0,
          "mode": 4
        }
      ]
    },
    {
      "name": "Object_5",
      "primitives": [
        {
          "attributes": {
            "NORMAL": 21,
            "POSITION": 20,
            "TEXCOORD_0": 22
          },
          "indices": 23,
          "material": 0,
          "mode": 4
        }
      ]
    },
    {
      "name": "Object_6",
      "primitives": [
        {
          "attributes": {
            "NORMAL": 25,
            "POSITION": 24,
            "TEXCOORD_0": 26
          },
          "indices": 27,
          "material": 0,
          "mode": 4
        }
      ]
    },
    {
      "name": "Object_7",
      "primitives": [
        {
          "attributes": {
            "NORMAL": 29,
            "POSITION": 28,
            "TEXCOORD_0": 30
          },
          "indices": 31,
          "material": 0,
          "mode": 4
        }
      ]
    },
    {
      "name": "Object_8",
      "primitives": [
        {
          "attributes": {
            "NORMAL": 33,
            "POSITION": 32,
            "TEXCOORD_0": 34
          },
          "indices": 35,
          "material": 0,
          "mode": 4
        }
      ]
    },
    {
      "name": "Object_9",
      "primitives": [
        {
          "attributes": {
            "NORMAL": 37,
            "POSITION": 36,
            "TEXCOORD_0": 38
          },
          "indices": 39,
          "material": 0,
          "mode": 4
        }
      ]
    },
    {
      "name": "Object_10",
      "primitives": [
        {
          "attributes": {
            "NORMAL": 41,
            "POSITION": 40,
            "TEXCOORD_0": 42
          },
          "indices": 43,
          "material": 0,
          "mode": 4
        }
      ]
    },
    {
      "name": "Object_11",
      "primitives": [
        {
          "attributes": {
            "NORMAL": 45,
            "POSITION": 44,
            "TEXCOORD_0": 46
          },
          "indices": 47,
          "material": 0,
          "mode": 4
        }
      ]
    },
    {
      "name": "Object_12",
      "primitives": [
        {
          "attributes": {
            "NORMAL": 49,
            "POSITION": 48,
            "TEXCOORD_0": 50
          },
          "indices": 51,
          "material": 1,
          "mode": 4
        }
      ]
    }
  ],
  "nodes": [
    {
      "children": [
        1
      ],
      "matrix": [
        -0.019050243862328564,
        0.002267387077471664,
        0.18645284877250035,
        0.0,
        0.18646499287768847,
        0.0010182767960498177,
        0.019039101059281638,
        0.0,
        -0.0007826171251307246,
        0.1874207574174669,
        -0.0023591189920776495,
        0.0,
        0.0,
        0.0,
        0.0,
        1.0
      ],
      "name": "Sketchfab_model"
    },
    {
      "children": [
        2,
        3,
        4,
        5,
        6,
        7,
        8,
        9,
        10,
        11,
        12,
        13,
        14
      ],
      "name": "Jupiter_Ganymed_C.obj.cleaner.materialmerger.gles"
    },
    {
      "mesh": 0,
      "name": "Object_2"
    },
    {
      "mesh": 1,
      "name": "Object_3"
    },
    {
      "mesh": 2,
      "name": "Object_4"
    },
    {
      "mesh": 3,
      "name": "Object_5"
    },
    {
      "mesh": 4,
      "name": "Object_6"
    },
    {
      "mesh": 5,
      "name": "Object_7"
    },
    {
      "mesh": 6,
      "name": "Object_8"
    },
    {
      "mesh": 7,
      "name": "Object_9"
    },
    {
      "mesh": 8,
      "name": "Object_10"
    },
    {
      "mesh": 9,
      "name": "Object_11"
    },
    {
      "mesh": 10,
      "name": "Object_12"
    },
    {
      "mesh": 11,
      "name": "Object_13"
    },
    {
      "mesh": 12,
      "name": "Object_14"
    }
  ],
  "samplers": [
    {
      "magFilter": 9729,
      "minFilter": 9987,
      "wrapS": 10497,
      "wrapT": 10497
    }
  ],
  "scene": 0,
  "scenes": [
    {
      "name": "Sketchfab_Scene",
      "nodes": [
        0
      ]
    }
  ],
  "textures": [
    {
      "sampler": 0,
      "source": 0
    }
  ]
}
